<mxfile host="app.diagrams.net" modified="2021-12-30T06:58:39.902Z" agent="5.0 (Windows NT 10.0; Win64; x64) AppleWebKit/537.36 (KHTML, like Gecko) Chrome/96.0.4664.110 Safari/537.36" etag="v2GunTMD0iM11I8CnGj3" version="16.1.0" type="github">
  <diagram id="BTCugf0hVG2icDk5_OUC" name="Page-1">
    <mxGraphModel dx="868" dy="442" grid="1" gridSize="10" guides="1" tooltips="1" connect="1" arrows="1" fold="1" page="1" pageScale="1" pageWidth="827" pageHeight="1169" math="0" shadow="0">
      <root>
        <mxCell id="0" />
        <mxCell id="1" parent="0" />
        <mxCell id="TUA_gjeaZ7OO4h-KXjGe-1" value="Pemda" style="swimlane;horizontal=0;" vertex="1" parent="1">
          <mxGeometry x="80" y="880" width="720" height="120" as="geometry" />
        </mxCell>
        <mxCell id="TUA_gjeaZ7OO4h-KXjGe-36" value="" style="ellipse;whiteSpace=wrap;html=1;aspect=fixed;strokeColor=#FF0000;" vertex="1" parent="TUA_gjeaZ7OO4h-KXjGe-1">
          <mxGeometry x="40" y="40" width="40" height="40" as="geometry" />
        </mxCell>
        <mxCell id="TUA_gjeaZ7OO4h-KXjGe-37" value="Membuat label item" style="points=[[0.25,0,0],[0.5,0,0],[0.75,0,0],[1,0.25,0],[1,0.5,0],[1,0.75,0],[0.75,1,0],[0.5,1,0],[0.25,1,0],[0,0.75,0],[0,0.5,0],[0,0.25,0]];shape=mxgraph.bpmn.task;whiteSpace=wrap;rectStyle=rounded;size=10;taskMarker=abstract;isLoopSub=1;fontSize=10;" vertex="1" parent="TUA_gjeaZ7OO4h-KXjGe-1">
          <mxGeometry x="120" y="37.5" width="100" height="45" as="geometry" />
        </mxCell>
        <mxCell id="TUA_gjeaZ7OO4h-KXjGe-38" value="" style="fontSize=12;html=1;endArrow=blockThin;endFill=1;rounded=0;entryX=0;entryY=0.5;entryDx=0;entryDy=0;entryPerimeter=0;" edge="1" parent="TUA_gjeaZ7OO4h-KXjGe-1" target="TUA_gjeaZ7OO4h-KXjGe-37">
          <mxGeometry width="160" relative="1" as="geometry">
            <mxPoint x="80" y="59.5" as="sourcePoint" />
            <mxPoint x="160" y="-700.5" as="targetPoint" />
          </mxGeometry>
        </mxCell>
        <mxCell id="TUA_gjeaZ7OO4h-KXjGe-7" value="Koperasi" style="swimlane;horizontal=0;" vertex="1" parent="1">
          <mxGeometry x="80" y="720" width="720" height="120" as="geometry" />
        </mxCell>
        <mxCell id="TUA_gjeaZ7OO4h-KXjGe-39" value="" style="ellipse;whiteSpace=wrap;html=1;aspect=fixed;strokeColor=#FF0000;" vertex="1" parent="TUA_gjeaZ7OO4h-KXjGe-7">
          <mxGeometry x="40" y="40" width="40" height="40" as="geometry" />
        </mxCell>
        <mxCell id="TUA_gjeaZ7OO4h-KXjGe-40" value="Membuat label item" style="points=[[0.25,0,0],[0.5,0,0],[0.75,0,0],[1,0.25,0],[1,0.5,0],[1,0.75,0],[0.75,1,0],[0.5,1,0],[0.25,1,0],[0,0.75,0],[0,0.5,0],[0,0.25,0]];shape=mxgraph.bpmn.task;whiteSpace=wrap;rectStyle=rounded;size=10;taskMarker=abstract;isLoopSub=1;fontSize=10;" vertex="1" parent="TUA_gjeaZ7OO4h-KXjGe-7">
          <mxGeometry x="120" y="37.5" width="100" height="45" as="geometry" />
        </mxCell>
        <mxCell id="TUA_gjeaZ7OO4h-KXjGe-41" value="" style="fontSize=12;html=1;endArrow=blockThin;endFill=1;rounded=0;entryX=0;entryY=0.5;entryDx=0;entryDy=0;entryPerimeter=0;" edge="1" parent="TUA_gjeaZ7OO4h-KXjGe-7" target="TUA_gjeaZ7OO4h-KXjGe-40">
          <mxGeometry width="160" relative="1" as="geometry">
            <mxPoint x="80" y="59.5" as="sourcePoint" />
            <mxPoint x="160" y="-700.5" as="targetPoint" />
          </mxGeometry>
        </mxCell>
        <mxCell id="TUA_gjeaZ7OO4h-KXjGe-13" value="Petani" style="swimlane;horizontal=0;startSize=23;" vertex="1" parent="1">
          <mxGeometry x="80" y="560" width="720" height="120" as="geometry" />
        </mxCell>
        <mxCell id="TUA_gjeaZ7OO4h-KXjGe-42" value="" style="ellipse;whiteSpace=wrap;html=1;aspect=fixed;strokeColor=#FF0000;" vertex="1" parent="TUA_gjeaZ7OO4h-KXjGe-13">
          <mxGeometry x="40" y="40" width="40" height="40" as="geometry" />
        </mxCell>
        <mxCell id="TUA_gjeaZ7OO4h-KXjGe-43" value="Membuat label item" style="points=[[0.25,0,0],[0.5,0,0],[0.75,0,0],[1,0.25,0],[1,0.5,0],[1,0.75,0],[0.75,1,0],[0.5,1,0],[0.25,1,0],[0,0.75,0],[0,0.5,0],[0,0.25,0]];shape=mxgraph.bpmn.task;whiteSpace=wrap;rectStyle=rounded;size=10;taskMarker=abstract;isLoopSub=1;fontSize=10;" vertex="1" parent="TUA_gjeaZ7OO4h-KXjGe-13">
          <mxGeometry x="120" y="37.5" width="100" height="45" as="geometry" />
        </mxCell>
        <mxCell id="TUA_gjeaZ7OO4h-KXjGe-44" value="" style="fontSize=12;html=1;endArrow=blockThin;endFill=1;rounded=0;entryX=0;entryY=0.5;entryDx=0;entryDy=0;entryPerimeter=0;" edge="1" parent="TUA_gjeaZ7OO4h-KXjGe-13" target="TUA_gjeaZ7OO4h-KXjGe-43">
          <mxGeometry width="160" relative="1" as="geometry">
            <mxPoint x="80" y="59.5" as="sourcePoint" />
            <mxPoint x="160" y="-700.5" as="targetPoint" />
          </mxGeometry>
        </mxCell>
        <mxCell id="TUA_gjeaZ7OO4h-KXjGe-21" value="Produsen" style="swimlane;horizontal=0;startSize=23;" vertex="1" parent="1">
          <mxGeometry x="80" y="1040" width="720" height="120" as="geometry" />
        </mxCell>
        <mxCell id="TUA_gjeaZ7OO4h-KXjGe-22" value="" style="ellipse;whiteSpace=wrap;html=1;aspect=fixed;strokeColor=#FF0000;" vertex="1" parent="TUA_gjeaZ7OO4h-KXjGe-21">
          <mxGeometry x="40" y="40" width="40" height="40" as="geometry" />
        </mxCell>
        <mxCell id="TUA_gjeaZ7OO4h-KXjGe-25" value="Membuat label item" style="points=[[0.25,0,0],[0.5,0,0],[0.75,0,0],[1,0.25,0],[1,0.5,0],[1,0.75,0],[0.75,1,0],[0.5,1,0],[0.25,1,0],[0,0.75,0],[0,0.5,0],[0,0.25,0]];shape=mxgraph.bpmn.task;whiteSpace=wrap;rectStyle=rounded;size=10;taskMarker=abstract;isLoopSub=1;fontSize=10;" vertex="1" parent="TUA_gjeaZ7OO4h-KXjGe-21">
          <mxGeometry x="120" y="37.5" width="100" height="45" as="geometry" />
        </mxCell>
        <mxCell id="TUA_gjeaZ7OO4h-KXjGe-26" value="" style="fontSize=12;html=1;endArrow=blockThin;endFill=1;rounded=0;entryX=0;entryY=0.5;entryDx=0;entryDy=0;entryPerimeter=0;" edge="1" parent="TUA_gjeaZ7OO4h-KXjGe-21" target="TUA_gjeaZ7OO4h-KXjGe-25">
          <mxGeometry width="160" relative="1" as="geometry">
            <mxPoint x="80" y="59.5" as="sourcePoint" />
            <mxPoint x="240" y="59.5" as="targetPoint" />
          </mxGeometry>
        </mxCell>
        <mxCell id="TUA_gjeaZ7OO4h-KXjGe-27" value="Retail" style="swimlane;horizontal=0;startSize=23;" vertex="1" parent="1">
          <mxGeometry x="80" y="400" width="720" height="120" as="geometry" />
        </mxCell>
        <mxCell id="TUA_gjeaZ7OO4h-KXjGe-45" value="" style="ellipse;whiteSpace=wrap;html=1;aspect=fixed;strokeColor=#FF0000;" vertex="1" parent="TUA_gjeaZ7OO4h-KXjGe-27">
          <mxGeometry x="40" y="40" width="40" height="40" as="geometry" />
        </mxCell>
        <mxCell id="TUA_gjeaZ7OO4h-KXjGe-46" value="Membuat label item" style="points=[[0.25,0,0],[0.5,0,0],[0.75,0,0],[1,0.25,0],[1,0.5,0],[1,0.75,0],[0.75,1,0],[0.5,1,0],[0.25,1,0],[0,0.75,0],[0,0.5,0],[0,0.25,0]];shape=mxgraph.bpmn.task;whiteSpace=wrap;rectStyle=rounded;size=10;taskMarker=abstract;isLoopSub=1;fontSize=10;" vertex="1" parent="TUA_gjeaZ7OO4h-KXjGe-27">
          <mxGeometry x="120" y="37.5" width="100" height="45" as="geometry" />
        </mxCell>
        <mxCell id="TUA_gjeaZ7OO4h-KXjGe-47" value="" style="fontSize=12;html=1;endArrow=blockThin;endFill=1;rounded=0;entryX=0;entryY=0.5;entryDx=0;entryDy=0;entryPerimeter=0;" edge="1" parent="TUA_gjeaZ7OO4h-KXjGe-27" target="TUA_gjeaZ7OO4h-KXjGe-46">
          <mxGeometry width="160" relative="1" as="geometry">
            <mxPoint x="80" y="59.5" as="sourcePoint" />
            <mxPoint x="160" y="-700.5" as="targetPoint" />
          </mxGeometry>
        </mxCell>
        <mxCell id="TUA_gjeaZ7OO4h-KXjGe-48" value="Sistem CMS" style="swimlane;horizontal=0;startSize=23;" vertex="1" parent="1">
          <mxGeometry x="80" y="120" width="720" height="80" as="geometry" />
        </mxCell>
        <mxCell id="TUA_gjeaZ7OO4h-KXjGe-58" value="" style="shape=datastore;whiteSpace=wrap;html=1;labelPosition=center;verticalLabelPosition=bottom;align=center;verticalAlign=top;" vertex="1" parent="TUA_gjeaZ7OO4h-KXjGe-48">
          <mxGeometry x="309" y="20" width="50" height="50" as="geometry" />
        </mxCell>
        <mxCell id="TUA_gjeaZ7OO4h-KXjGe-52" value="Blockchain" style="swimlane;horizontal=0;startSize=23;" vertex="1" parent="1">
          <mxGeometry x="80" width="720" height="80" as="geometry" />
        </mxCell>
        <mxCell id="TUA_gjeaZ7OO4h-KXjGe-57" value="" style="html=1;whiteSpace=wrap;shape=isoCube2;backgroundOutline=1;isoAngle=15;" vertex="1" parent="TUA_gjeaZ7OO4h-KXjGe-52">
          <mxGeometry x="298.5" y="10" width="71" height="70" as="geometry" />
        </mxCell>
        <mxCell id="TUA_gjeaZ7OO4h-KXjGe-56" value="" style="shape=datastore;whiteSpace=wrap;html=1;labelPosition=center;verticalLabelPosition=bottom;align=center;verticalAlign=top;" vertex="1" parent="TUA_gjeaZ7OO4h-KXjGe-52">
          <mxGeometry x="309" y="20" width="50" height="50" as="geometry" />
        </mxCell>
        <mxCell id="TUA_gjeaZ7OO4h-KXjGe-59" value="Pelanggan" style="swimlane;horizontal=0;startSize=23;" vertex="1" parent="1">
          <mxGeometry x="80" y="240" width="720" height="120" as="geometry" />
        </mxCell>
        <mxCell id="TUA_gjeaZ7OO4h-KXjGe-61" value="Membaca label item saat membeli barang" style="points=[[0.25,0,0],[0.5,0,0],[0.75,0,0],[1,0.25,0],[1,0.5,0],[1,0.75,0],[0.75,1,0],[0.5,1,0],[0.25,1,0],[0,0.75,0],[0,0.5,0],[0,0.25,0]];shape=mxgraph.bpmn.task;whiteSpace=wrap;rectStyle=rounded;size=10;taskMarker=abstract;isLoopSub=1;fontSize=10;verticalAlign=top;" vertex="1" parent="TUA_gjeaZ7OO4h-KXjGe-59">
          <mxGeometry x="120" y="37.5" width="100" height="45" as="geometry" />
        </mxCell>
        <mxCell id="TUA_gjeaZ7OO4h-KXjGe-64" style="edgeStyle=orthogonalEdgeStyle;rounded=0;orthogonalLoop=1;jettySize=auto;html=1;exitX=1;exitY=0.5;exitDx=0;exitDy=0;" edge="1" parent="TUA_gjeaZ7OO4h-KXjGe-59" source="TUA_gjeaZ7OO4h-KXjGe-63" target="TUA_gjeaZ7OO4h-KXjGe-61">
          <mxGeometry relative="1" as="geometry" />
        </mxCell>
        <mxCell id="TUA_gjeaZ7OO4h-KXjGe-63" value="" style="ellipse;whiteSpace=wrap;html=1;aspect=fixed;strokeColor=#FF0000;" vertex="1" parent="TUA_gjeaZ7OO4h-KXjGe-59">
          <mxGeometry x="40" y="40" width="40" height="40" as="geometry" />
        </mxCell>
      </root>
    </mxGraphModel>
  </diagram>
</mxfile>
